<svg xmlns="http://www.w3.org/2000/svg" version="1.1" xmlns:xlink="http://www.w3.org/1999/xlink" xmlns:svgjs="http://svgjs.dev/svgjs" width="2000" height="737" viewBox="0 0 2000 737"><g transform="matrix(1,0,0,1,-1.2121212121212466,0.6488103010802888)"><svg viewBox="0 0 396 146" data-background-color="#000000" preserveAspectRatio="xMidYMid meet" height="737" width="2000" xmlns="http://www.w3.org/2000/svg" xmlns:xlink="http://www.w3.org/1999/xlink"><g id="tight-bounds" transform="matrix(1,0,0,1,0.2400000000000091,-0.12852958474589116)"><svg viewBox="0 0 395.52 146.25705916949178" height="146.25705916949178" width="395.52"><g><svg viewBox="0 0 668.4979484422361 247.2" height="146.25705916949178" width="395.52"><g><svg viewBox="0 0 377.0951552795031 247.2" height="247.2" width="377.0951552795031"><g id="textblocktransform"><svg viewBox="0 0 377.0951552795031 247.2" height="247.2" width="377.0951552795031" id="textblock"><g><svg viewBox="0 0 377.0951552795031 247.2" height="247.2" width="377.0951552795031"><g transform="matrix(1,0,0,1,0,0)"><svg width="377.0951552795031" viewBox="4 -39.95 61.400000000000006 40.25" height="247.2" data-palette-color="#89939e"><path d="M25.15-2.1L25.15-37.55Q25.15-39.95 28.1-39.95L28.1-39.95Q31.1-39.95 31.1-37.55L31.1-37.55 31.1-2.1Q31.1 0.3 28.1 0.3L28.1 0.3Q25.15 0.3 25.15-2.1L25.15-2.1ZM9.95-37.55L9.95-2.1Q9.95 0.3 6.95 0.3L6.95 0.3Q4 0.3 4-2.1L4-2.1 4-37.55Q4-39.95 6.95-39.95L6.95-39.95Q9.95-39.95 9.95-37.55L9.95-37.55ZM21.65-20.65L21.65-20.65Q21.65-18.9 20.45-17.7 19.25-16.5 17.5-16.5L17.5-16.5Q15.8-16.5 14.6-17.7 13.4-18.9 13.4-20.65L13.4-20.65Q13.4-22.4 14.6-23.6 15.8-24.8 17.5-24.8L17.5-24.8Q19.25-24.8 20.45-23.6 21.65-22.4 21.65-20.65ZM47.7-22.85L57.35-22.85Q58.65-22.85 60.05-22.3 61.45-21.75 62.75-20.85L62.75-20.85 62.7-20.85Q64-19.95 64.7-18.4 65.4-16.85 65.4-14.85L65.4-14.85 65.4-8Q65.4-3.95 62.7-1.95L62.7-1.95Q61.4-1 60.02-0.48 58.65 0.05 57.35 0.05L57.35 0.05 46.45 0.05Q45.15 0.05 43.77-0.48 42.4-1 41.1-1.95L41.1-1.95Q38.4-3.95 38.4-8L38.4-8 38.4-11.3Q38.4-13.65 41.35-13.65L41.35-13.65Q44.35-13.65 44.35-11.3L44.35-11.3 44.35-8.4Q44.35-7.1 45.1-6.05 45.85-5 47.7-5L47.7-5 56.1-5Q57.95-5 58.7-6.05 59.45-7.1 59.45-8.4L59.45-8.4 59.45-14.45Q59.45-15.7 58.7-16.78 57.95-17.85 56.1-17.85L56.1-17.85 46.45-17.85Q43.85-17.85 41.1-19.75L41.1-19.75Q38.4-21.85 38.4-25.8L38.4-25.8 38.4-31.75Q38.4-33.75 39.1-35.27 39.8-36.8 41.1-37.75L41.1-37.75 41.05-37.75Q42.35-38.6 43.75-39.15 45.15-39.7 46.45-39.7L46.45-39.7 57.35-39.7Q58.65-39.7 60.05-39.15 61.45-38.6 62.75-37.75L62.75-37.75 62.7-37.75Q64-36.8 64.7-35.27 65.4-33.75 65.4-31.75L65.4-31.75 65.4-28.8Q65.4-26.45 62.4-26.45L62.4-26.45Q59.45-26.45 59.45-28.8L59.45-28.8 59.45-31.3Q59.45-32.55 58.7-33.6 57.95-34.65 56.1-34.65L56.1-34.65 47.7-34.65Q45.85-34.65 45.1-33.6 44.35-32.55 44.35-31.3L44.35-31.3 44.35-26.2Q44.35-24.9 45.1-23.88 45.85-22.85 47.7-22.85L47.7-22.85Z" opacity="1" transform="matrix(1,0,0,1,0,0)" fill="#ffffff" class="wordmark-text-0" data-fill-palette-color="primary" id="text-0"></path></svg></g></svg></g></svg></g></svg></g><g transform="matrix(1,0,0,1,435.4531424795031,22.686051625780834)"><svg viewBox="0 0 233.0448059627329 201.82789674843832" height="201.82789674843832" width="233.0448059627329"><g><svg xmlns="http://www.w3.org/2000/svg" xmlns:xlink="http://www.w3.org/1999/xlink" version="1.1" x="0" y="0" viewBox="11.393 16.564999999999998 77.214 66.87100000000001" enable-background="new 0 0 100 100" xml:space="preserve" height="201.82789674843832" width="233.0448059627329" class="icon-icon-0" data-fill-palette-color="accent" id="icon-0"><g fill="#dedede" data-fill-palette-color="accent"><path fill="none" d="M87.453 50L74.231 27.099v0.5h-9.178l-7.905 7.906c0.651 1.087 1.032 2.353 1.032 3.709 0 3.998-3.252 7.25-7.25 7.25-3.997 0-7.25-3.252-7.25-7.25 0-3.997 3.253-7.25 7.25-7.25 1.557 0 2.997 0.498 4.18 1.337l8.701-8.702h8.977l-4.062-7.034H45.251v12.641L31.295 44.16c0.602 1.057 0.95 2.274 0.95 3.574 0 3.998-3.253 7.25-7.25 7.25-3.998 0-7.25-3.252-7.25-7.25 0-3.997 3.252-7.25 7.25-7.25 1.612 0 3.099 0.536 4.305 1.43l12.951-12.951V17.564H31.273L12.547 50l9.93 17.198 17.195-17.194h18.623c0.692-3.28 3.608-5.75 7.092-5.75 3.997 0 7.25 3.252 7.25 7.25 0 3.997-3.253 7.25-7.25 7.25-3.483 0-6.399-2.471-7.092-5.75H40.914L24.029 69.889l7.244 12.547h13.27v-6.188c-3.28-0.693-5.75-3.608-5.75-7.092 0-3.998 3.252-7.25 7.25-7.25 3.483 0 6.398 2.471 7.092 5.75h23.948v0.305L87.453 50z"></path><path fill="none" d="M69.637 51.504c0-2.344-1.907-4.25-4.25-4.25-2.344 0-4.25 1.906-4.25 4.25 0 2.343 1.906 4.25 4.25 4.25C67.729 55.754 69.637 53.847 69.637 51.504z"></path><path fill="none" d="M47.543 76.248v6.188h21.184l6.801-11.779H53.135C52.544 73.451 50.338 75.658 47.543 76.248z"></path><path fill="none" d="M50.293 69.156c0-2.344-1.907-4.25-4.25-4.25-2.344 0-4.25 1.906-4.25 4.25s1.906 4.25 4.25 4.25C48.386 73.406 50.293 71.5 50.293 69.156z"></path><path fill="none" d="M20.745 47.734c0 2.344 1.906 4.25 4.25 4.25 2.343 0 4.25-1.906 4.25-4.25s-1.907-4.25-4.25-4.25C22.651 43.484 20.745 45.391 20.745 47.734z"></path><path fill="none" d="M50.931 34.964c-2.343 0-4.25 1.907-4.25 4.25 0 2.344 1.907 4.25 4.25 4.25 2.344 0 4.25-1.906 4.25-4.25C55.181 36.871 53.274 34.964 50.931 34.964z"></path><path d="M74.231 25.1v-0.501h-0.289l-4.639-8.034H30.696L11.393 50l19.304 33.436h38.607l7.378-12.779h0.401v-0.695L88.607 50 74.231 25.1zM68.727 82.436H47.543v-6.188c2.795-0.59 5.001-2.797 5.592-5.592h22.393L68.727 82.436zM46.043 73.406c-2.344 0-4.25-1.906-4.25-4.25s1.906-4.25 4.25-4.25c2.343 0 4.25 1.906 4.25 4.25S48.386 73.406 46.043 73.406zM53.135 67.656c-0.693-3.279-3.608-5.75-7.092-5.75-3.998 0-7.25 3.252-7.25 7.25 0 3.483 2.47 6.398 5.75 7.092v6.188h-13.27l-7.244-12.547 16.885-16.885h17.381c0.692 3.279 3.608 5.75 7.092 5.75 3.997 0 7.25-3.253 7.25-7.25 0-3.998-3.253-7.25-7.25-7.25-3.483 0-6.399 2.47-7.092 5.75H39.672L22.477 67.198 12.547 50l18.727-32.436h10.978v11.398L29.3 41.914c-1.206-0.894-2.692-1.43-4.305-1.43-3.998 0-7.25 3.253-7.25 7.25 0 3.998 3.252 7.25 7.25 7.25 3.997 0 7.25-3.252 7.25-7.25 0-1.3-0.349-2.518-0.95-3.574l13.956-13.955V17.564h23.476l4.062 7.034h-8.977l-8.701 8.702c-1.183-0.839-2.623-1.337-4.18-1.337-3.997 0-7.25 3.253-7.25 7.25 0 3.998 3.253 7.25 7.25 7.25 3.998 0 7.25-3.252 7.25-7.25 0-1.356-0.381-2.622-1.032-3.709l7.905-7.906h9.178v-0.5L87.453 50l-10.37 17.961v-0.305H53.135zM61.137 51.504c0-2.344 1.906-4.25 4.25-4.25 2.343 0 4.25 1.906 4.25 4.25 0 2.343-1.907 4.25-4.25 4.25C63.043 55.754 61.137 53.847 61.137 51.504zM29.245 47.734c0 2.344-1.907 4.25-4.25 4.25-2.344 0-4.25-1.906-4.25-4.25s1.906-4.25 4.25-4.25C27.338 43.484 29.245 45.391 29.245 47.734zM55.181 39.214c0 2.344-1.906 4.25-4.25 4.25-2.343 0-4.25-1.906-4.25-4.25 0-2.343 1.907-4.25 4.25-4.25C53.274 34.964 55.181 36.871 55.181 39.214z" fill="#ffffff" data-fill-palette-color="accent"></path></g></svg></g></svg></g></svg></g><defs></defs></svg><rect width="395.52" height="146.25705916949178" fill="none" stroke="none" visibility="hidden"></rect></g></svg></g></svg>